<svg width="285" height="59" viewBox="0 0 285 59" fill="none" xmlns="http://www.w3.org/2000/svg">
<path d="M85.8 20.2744H86.62C86.6733 20.4877 86.72 20.7477 86.76 21.0544C86.8133 21.3477 86.8533 21.6677 86.88 22.0144C86.92 22.3477 86.9467 22.681 86.96 23.0144C86.9733 23.3477 86.98 23.6477 86.98 23.9144C86.5133 24.2077 85.9267 24.4144 85.22 24.5344C84.5267 24.6544 83.8133 24.7144 83.08 24.7144C81.9733 24.7144 80.9667 24.581 80.06 24.3144C79.1667 24.0344 78.4 23.601 77.76 23.0144C77.1333 22.4144 76.6467 21.661 76.3 20.7544C75.9533 19.8344 75.78 18.7344 75.78 17.4544C75.78 16.1877 75.9667 15.101 76.34 14.1944C76.7267 13.2744 77.24 12.521 77.88 11.9344C78.52 11.3477 79.26 10.921 80.1 10.6544C80.9533 10.3744 81.8467 10.2344 82.78 10.2344C83.66 10.2344 84.4533 10.301 85.16 10.4344C85.88 10.5544 86.4667 10.721 86.92 10.9344C86.92 11.1477 86.9067 11.421 86.88 11.7544C86.8667 12.0877 86.8333 12.441 86.78 12.8144C86.74 13.1744 86.6867 13.5344 86.62 13.8944C86.5667 14.241 86.5133 14.5344 86.46 14.7744H85.62L84.52 11.7544C84.4 11.6877 84.2067 11.6344 83.94 11.5944C83.6733 11.5544 83.4 11.5344 83.12 11.5344C82.5733 11.5344 82.06 11.6477 81.58 11.8744C81.1 12.0877 80.6733 12.4344 80.3 12.9144C79.9267 13.3944 79.6333 14.0144 79.42 14.7744C79.2067 15.521 79.1 16.421 79.1 17.4744C79.1 19.381 79.48 20.8477 80.24 21.8744C81 22.901 82.0333 23.4144 83.34 23.4144C83.7133 23.4144 84.0267 23.3877 84.28 23.3344C84.5467 23.2677 84.7267 23.181 84.82 23.0744L85.8 20.2744ZM97.4469 21.5744C97.4469 21.8677 97.4469 22.121 97.4469 22.3344C97.4602 22.5477 97.4802 22.7744 97.5069 23.0144L98.8869 23.2144V23.9144C98.7269 23.9944 98.5069 24.0744 98.2269 24.1544C97.9602 24.2344 97.6735 24.3144 97.3669 24.3944C97.0735 24.461 96.7802 24.5144 96.4869 24.5544C96.1935 24.6077 95.9335 24.6477 95.7069 24.6744H95.0269C94.8935 24.3677 94.8135 24.061 94.7869 23.7544C94.7602 23.4477 94.7402 23.0744 94.7269 22.6344H94.6269C94.5602 22.901 94.4469 23.161 94.2869 23.4144C94.1269 23.6544 93.9202 23.8744 93.6669 24.0744C93.4269 24.261 93.1402 24.4144 92.8069 24.5344C92.4735 24.6544 92.1002 24.7144 91.6869 24.7144C91.2469 24.7144 90.8402 24.6477 90.4669 24.5144C90.0935 24.381 89.7669 24.1944 89.4869 23.9544C89.2069 23.7144 88.9869 23.4277 88.8269 23.0944C88.6669 22.7477 88.5869 22.361 88.5869 21.9344C88.5869 21.3344 88.7002 20.841 88.9269 20.4544C89.1535 20.0677 89.5069 19.7544 89.9869 19.5144C90.4802 19.261 91.1069 19.0744 91.8669 18.9544C92.6402 18.8344 93.5735 18.7477 94.6669 18.6944C94.7735 17.5477 94.7269 16.7077 94.5269 16.1744C94.3269 15.641 93.8935 15.3744 93.2269 15.3744C92.8135 15.3744 92.4335 15.441 92.0869 15.5744L91.1469 17.9744H90.2669C90.1602 17.8144 90.0535 17.6344 89.9469 17.4344C89.8535 17.221 89.7602 17.001 89.6669 16.7744C89.5869 16.5344 89.5135 16.2944 89.4469 16.0544C89.3935 15.8144 89.3535 15.581 89.3269 15.3544C89.8335 15.0077 90.4869 14.7344 91.2869 14.5344C92.0869 14.3344 92.9335 14.2344 93.8269 14.2344C94.5869 14.2344 95.2069 14.321 95.6869 14.4944C96.1669 14.6544 96.5402 14.881 96.8069 15.1744C97.0869 15.4544 97.2802 15.7877 97.3869 16.1744C97.4935 16.561 97.5469 16.9744 97.5469 17.4144C97.5469 18.2144 97.5269 18.941 97.4869 19.5944C97.4602 20.2344 97.4469 20.8944 97.4469 21.5744ZM92.9469 23.1144C93.2269 23.1144 93.4669 23.061 93.6669 22.9544C93.8669 22.8477 94.0335 22.721 94.1669 22.5744C94.3135 22.4277 94.4202 22.2677 94.4869 22.0944C94.5669 21.921 94.6269 21.7677 94.6669 21.6344V19.6344C94.0402 19.6477 93.5269 19.6877 93.1269 19.7544C92.7269 19.821 92.4135 19.9344 92.1869 20.0944C91.9602 20.241 91.8002 20.4344 91.7069 20.6744C91.6269 20.901 91.5869 21.181 91.5869 21.5144C91.5869 22.021 91.7069 22.4144 91.9469 22.6944C92.1869 22.9744 92.5202 23.1144 92.9469 23.1144ZM109.8 28.4744H104.36V27.6944C104.733 27.481 105.173 27.321 105.68 27.2144V24.0544C105.52 24.2544 105.273 24.4144 104.94 24.5344C104.606 24.6544 104.273 24.7144 103.94 24.7144C103.326 24.7144 102.76 24.621 102.24 24.4344C101.733 24.2344 101.293 23.9344 100.92 23.5344C100.546 23.1344 100.253 22.6277 100.04 22.0144C99.8397 21.401 99.7397 20.6744 99.7397 19.8344C99.7397 18.8744 99.8464 18.0477 100.06 17.3544C100.273 16.6477 100.573 16.0677 100.96 15.6144C101.346 15.1477 101.806 14.801 102.34 14.5744C102.886 14.3477 103.493 14.2344 104.16 14.2344C104.493 14.2344 104.8 14.2877 105.08 14.3944C105.36 14.4877 105.56 14.6144 105.68 14.7744V11.0944L104.16 10.9344V10.1544C104.346 10.0744 104.6 9.99436 104.92 9.91436C105.24 9.83436 105.573 9.76103 105.92 9.69436C106.28 9.6277 106.626 9.57436 106.96 9.53436C107.293 9.48103 107.573 9.4477 107.8 9.43436H108.48V14.8944C108.666 14.6944 108.926 14.5344 109.26 14.4144C109.606 14.2944 109.966 14.2344 110.34 14.2344C110.94 14.2344 111.486 14.3277 111.98 14.5144C112.486 14.701 112.92 14.9877 113.28 15.3744C113.64 15.761 113.92 16.2477 114.12 16.8344C114.32 17.4077 114.42 18.0877 114.42 18.8744C114.42 19.8877 114.306 20.761 114.08 21.4944C113.866 22.2277 113.566 22.8344 113.18 23.3144C112.793 23.7944 112.333 24.1477 111.8 24.3744C111.266 24.601 110.693 24.7144 110.08 24.7144C109.786 24.7144 109.486 24.6677 109.18 24.5744C108.873 24.4944 108.64 24.3677 108.48 24.1944V27.2144C108.973 27.2944 109.413 27.4544 109.8 27.6944V28.4744ZM104.64 23.4544C104.866 23.4544 105.066 23.4277 105.24 23.3744C105.413 23.3077 105.593 23.181 105.78 22.9944V15.8344C105.62 15.7277 105.453 15.6477 105.28 15.5944C105.106 15.5277 104.886 15.4944 104.62 15.4944C104.353 15.4944 104.106 15.5544 103.88 15.6744C103.653 15.7944 103.453 15.9944 103.28 16.2744C103.106 16.541 102.973 16.901 102.88 17.3544C102.786 17.8077 102.74 18.3744 102.74 19.0544C102.74 19.961 102.786 20.701 102.88 21.2744C102.973 21.8344 103.1 22.281 103.26 22.6144C103.433 22.9344 103.633 23.1544 103.86 23.2744C104.1 23.3944 104.36 23.4544 104.64 23.4544ZM109.5 15.4944C109.273 15.4944 109.073 15.5277 108.9 15.5944C108.74 15.6477 108.566 15.7544 108.38 15.9144V23.0944C108.54 23.2277 108.706 23.321 108.88 23.3744C109.053 23.4277 109.273 23.4544 109.54 23.4544C109.78 23.4544 110.013 23.3944 110.24 23.2744C110.466 23.1544 110.666 22.9477 110.84 22.6544C111.013 22.3477 111.153 21.9477 111.26 21.4544C111.366 20.961 111.42 20.3344 111.42 19.5744C111.42 18.761 111.373 18.0877 111.28 17.5544C111.2 17.021 111.08 16.6077 110.92 16.3144C110.76 16.0077 110.56 15.7944 110.32 15.6744C110.08 15.5544 109.806 15.4944 109.5 15.4944ZM124.4 21.5744C124.4 21.8677 124.4 22.121 124.4 22.3344C124.413 22.5477 124.433 22.7744 124.46 23.0144L125.84 23.2144V23.9144C125.68 23.9944 125.46 24.0744 125.18 24.1544C124.913 24.2344 124.627 24.3144 124.32 24.3944C124.027 24.461 123.733 24.5144 123.44 24.5544C123.147 24.6077 122.887 24.6477 122.66 24.6744H121.98C121.847 24.3677 121.767 24.061 121.74 23.7544C121.713 23.4477 121.693 23.0744 121.68 22.6344H121.58C121.513 22.901 121.4 23.161 121.24 23.4144C121.08 23.6544 120.873 23.8744 120.62 24.0744C120.38 24.261 120.093 24.4144 119.76 24.5344C119.427 24.6544 119.053 24.7144 118.64 24.7144C118.2 24.7144 117.793 24.6477 117.42 24.5144C117.047 24.381 116.72 24.1944 116.44 23.9544C116.16 23.7144 115.94 23.4277 115.78 23.0944C115.62 22.7477 115.54 22.361 115.54 21.9344C115.54 21.3344 115.653 20.841 115.88 20.4544C116.107 20.0677 116.46 19.7544 116.94 19.5144C117.433 19.261 118.06 19.0744 118.82 18.9544C119.593 18.8344 120.527 18.7477 121.62 18.6944C121.727 17.5477 121.68 16.7077 121.48 16.1744C121.28 15.641 120.847 15.3744 120.18 15.3744C119.767 15.3744 119.387 15.441 119.04 15.5744L118.1 17.9744H117.22C117.113 17.8144 117.007 17.6344 116.9 17.4344C116.807 17.221 116.713 17.001 116.62 16.7744C116.54 16.5344 116.467 16.2944 116.4 16.0544C116.347 15.8144 116.307 15.581 116.28 15.3544C116.787 15.0077 117.44 14.7344 118.24 14.5344C119.04 14.3344 119.887 14.2344 120.78 14.2344C121.54 14.2344 122.16 14.321 122.64 14.4944C123.12 14.6544 123.493 14.881 123.76 15.1744C124.04 15.4544 124.233 15.7877 124.34 16.1744C124.447 16.561 124.5 16.9744 124.5 17.4144C124.5 18.2144 124.48 18.941 124.44 19.5944C124.413 20.2344 124.4 20.8944 124.4 21.5744ZM119.9 23.1144C120.18 23.1144 120.42 23.061 120.62 22.9544C120.82 22.8477 120.987 22.721 121.12 22.5744C121.267 22.4277 121.373 22.2677 121.44 22.0944C121.52 21.921 121.58 21.7677 121.62 21.6344V19.6344C120.993 19.6477 120.48 19.6877 120.08 19.7544C119.68 19.821 119.367 19.9344 119.14 20.0944C118.913 20.241 118.753 20.4344 118.66 20.6744C118.58 20.901 118.54 21.181 118.54 21.5144C118.54 22.021 118.66 22.4144 118.9 22.6944C119.14 22.9744 119.473 23.1144 119.9 23.1144ZM132.073 28.4744H126.553V27.6944C127.006 27.481 127.446 27.321 127.873 27.2144V15.8944L126.553 15.7344V14.9544C126.766 14.861 127.026 14.7744 127.333 14.6944C127.653 14.6144 127.979 14.5477 128.313 14.4944C128.646 14.4277 128.966 14.3744 129.273 14.3344C129.593 14.2944 129.859 14.261 130.073 14.2344H130.753V16.4744H130.773C130.999 15.8344 131.353 15.301 131.833 14.8744C132.326 14.4477 133.006 14.2344 133.873 14.2344C134.459 14.2344 134.986 14.3344 135.453 14.5344C135.933 14.721 136.333 15.021 136.653 15.4344C136.986 15.8344 137.239 16.3544 137.413 16.9944C137.599 17.621 137.693 18.3744 137.693 19.2544C137.693 20.0944 137.573 20.8544 137.333 21.5344C137.106 22.2144 136.773 22.7877 136.333 23.2544C135.906 23.721 135.379 24.081 134.753 24.3344C134.139 24.5877 133.439 24.7144 132.653 24.7144C132.199 24.7144 131.839 24.681 131.573 24.6144C131.319 24.561 131.046 24.461 130.753 24.3144V27.2144C130.966 27.241 131.179 27.2877 131.393 27.3544C131.606 27.4344 131.833 27.5477 132.073 27.6944V28.4744ZM132.713 15.8344C132.259 15.8344 131.853 15.9944 131.493 16.3144C131.146 16.6344 130.899 17.1277 130.753 17.7944V23.1144C130.966 23.2744 131.193 23.3944 131.433 23.4744C131.673 23.541 131.986 23.5744 132.373 23.5744C133.133 23.5744 133.693 23.2077 134.053 22.4744C134.413 21.741 134.593 20.6677 134.593 19.2544C134.593 18.161 134.453 17.321 134.173 16.7344C133.906 16.1344 133.419 15.8344 132.713 15.8344ZM138.9 14.4744H144.22V15.2544C144.074 15.3344 143.9 15.4144 143.7 15.4944C143.514 15.5744 143.287 15.6544 143.02 15.7344V20.2344L142.8 22.0944H142.9L143.68 20.5944L147.34 14.4744H151.12V15.2544C150.694 15.4944 150.254 15.6544 149.8 15.7344V23.2144C150.054 23.281 150.294 23.3544 150.52 23.4344C150.747 23.501 150.947 23.5877 151.12 23.6944V24.4744H145.8V23.6944C146.174 23.481 146.574 23.321 147 23.2144V18.4944L147.2 16.9144H147.1L146.34 18.4144L142.72 24.4744H138.9V23.6944C139.127 23.5877 139.347 23.501 139.56 23.4344C139.774 23.3544 139.994 23.281 140.22 23.2144V15.7344C139.7 15.6544 139.26 15.4944 138.9 15.2544V14.4744ZM167.19 24.4744H160.31V23.7144C160.577 23.6077 160.877 23.501 161.21 23.3944C161.557 23.2744 161.903 23.1877 162.25 23.1344V11.7744H159.93L158.65 15.1944H157.83C157.777 14.9277 157.723 14.5877 157.67 14.1744C157.617 13.761 157.57 13.3344 157.53 12.8944C157.49 12.4544 157.457 12.021 157.43 11.5944C157.403 11.1544 157.39 10.781 157.39 10.4744H170.13C170.13 10.7944 170.117 11.1677 170.09 11.5944C170.063 12.021 170.03 12.4544 169.99 12.8944C169.95 13.3344 169.903 13.761 169.85 14.1744C169.797 14.5744 169.743 14.9144 169.69 15.1944H168.85L167.57 11.7744H165.25V23.1344C165.597 23.201 165.937 23.281 166.27 23.3744C166.617 23.4677 166.923 23.581 167.19 23.7144V24.4744ZM180.81 11.8144C180.49 11.7477 180.21 11.6677 179.97 11.5744C179.73 11.4677 179.496 11.3544 179.27 11.2344V10.4744H184.11V11.2344C183.963 11.341 183.763 11.4477 183.51 11.5544C183.27 11.6477 182.996 11.7344 182.69 11.8144L178.87 20.4544C178.23 21.921 177.563 23.0144 176.87 23.7344C176.176 24.441 175.436 24.721 174.65 24.5744C174.543 24.4677 174.43 24.3077 174.31 24.0944C174.203 23.8677 174.096 23.6344 173.99 23.3944C173.896 23.141 173.816 22.901 173.75 22.6744C173.683 22.4344 173.643 22.2344 173.63 22.0744L174.19 21.2744L176.57 22.0144C176.676 21.8944 176.776 21.7477 176.87 21.5744C176.963 21.401 177.05 21.2077 177.13 20.9944L171.81 11.8144C171.556 11.7477 171.31 11.6677 171.07 11.5744C170.843 11.4677 170.63 11.3544 170.43 11.2344V10.4744H176.67V11.2344C176.27 11.4744 175.763 11.6677 175.15 11.8144L177.97 17.2344L178.39 18.5144H178.43L178.83 17.1944L180.81 11.8144ZM189.142 23.1344C189.502 23.1877 189.855 23.2677 190.202 23.3744C190.562 23.4677 190.882 23.581 191.162 23.7144V24.4744H184.502V23.7144C184.755 23.5677 185.022 23.4477 185.302 23.3544C185.595 23.261 185.875 23.1877 186.142 23.1344V11.8144C185.835 11.761 185.542 11.6877 185.262 11.5944C184.982 11.4877 184.728 11.3677 184.502 11.2344V10.4744H187.022C187.555 10.4744 188.162 10.4477 188.842 10.3944C189.535 10.341 190.168 10.3144 190.742 10.3144C191.448 10.3144 192.135 10.3877 192.802 10.5344C193.482 10.6677 194.082 10.901 194.602 11.2344C195.135 11.5677 195.562 12.0144 195.882 12.5744C196.202 13.121 196.362 13.8077 196.362 14.6344C196.362 15.421 196.202 16.101 195.882 16.6744C195.575 17.2477 195.162 17.721 194.642 18.0944C194.122 18.4677 193.522 18.7477 192.842 18.9344C192.162 19.1077 191.462 19.1944 190.742 19.1944C190.675 19.1944 190.568 19.1944 190.422 19.1944C190.275 19.1944 190.115 19.1944 189.942 19.1944C189.782 19.181 189.622 19.1744 189.462 19.1744C189.315 19.161 189.208 19.1477 189.142 19.1344V23.1344ZM190.222 11.6144C189.955 11.6144 189.742 11.6277 189.582 11.6544C189.435 11.6677 189.288 11.6944 189.142 11.7344V17.8144C189.262 17.8544 189.442 17.881 189.682 17.8944C189.922 17.8944 190.115 17.8944 190.262 17.8944C190.622 17.8944 190.968 17.8344 191.302 17.7144C191.635 17.5944 191.928 17.4077 192.182 17.1544C192.448 16.901 192.662 16.5744 192.822 16.1744C192.982 15.7744 193.062 15.2944 193.062 14.7344C193.062 13.6677 192.802 12.881 192.282 12.3744C191.762 11.8677 191.075 11.6144 190.222 11.6144ZM203.315 24.4744H197.295V23.7144C197.548 23.581 197.815 23.461 198.095 23.3544C198.375 23.2477 198.655 23.1744 198.935 23.1344V11.8144C198.668 11.7477 198.388 11.6744 198.095 11.5944C197.801 11.501 197.535 11.381 197.295 11.2344V10.4744H203.315V11.2344C203.115 11.3544 202.888 11.4677 202.635 11.5744C202.381 11.681 202.108 11.761 201.815 11.8144V19.4144L201.615 20.9744L202.595 19.3344L207.635 12.2944V11.8144C207.008 11.6677 206.481 11.4744 206.055 11.2344V10.4744H212.075V11.2344C211.848 11.381 211.588 11.501 211.295 11.5944C211.015 11.6744 210.728 11.7477 210.435 11.8144V23.1344C210.741 23.1877 211.028 23.2677 211.295 23.3744C211.575 23.4677 211.835 23.581 212.075 23.7144V24.4744H206.055V23.7144C206.241 23.621 206.461 23.521 206.715 23.4144C206.981 23.2944 207.261 23.201 207.555 23.1344V15.5544L207.755 13.9744L206.855 15.5544L201.735 22.6944V23.1344C202.041 23.201 202.328 23.2877 202.595 23.3944C202.861 23.501 203.101 23.6077 203.315 23.7144V24.4744ZM223.28 20.2744H224.1C224.154 20.4877 224.2 20.7477 224.24 21.0544C224.294 21.3477 224.334 21.6677 224.36 22.0144C224.4 22.3477 224.427 22.681 224.44 23.0144C224.454 23.3477 224.46 23.6477 224.46 23.9144C223.994 24.2077 223.407 24.4144 222.7 24.5344C222.007 24.6544 221.294 24.7144 220.56 24.7144C219.454 24.7144 218.447 24.581 217.54 24.3144C216.647 24.0344 215.88 23.601 215.24 23.0144C214.614 22.4144 214.127 21.661 213.78 20.7544C213.434 19.8344 213.26 18.7344 213.26 17.4544C213.26 16.1877 213.447 15.101 213.82 14.1944C214.207 13.2744 214.72 12.521 215.36 11.9344C216 11.3477 216.74 10.921 217.58 10.6544C218.434 10.3744 219.327 10.2344 220.26 10.2344C221.14 10.2344 221.934 10.301 222.64 10.4344C223.36 10.5544 223.947 10.721 224.4 10.9344C224.4 11.1477 224.387 11.421 224.36 11.7544C224.347 12.0877 224.314 12.441 224.26 12.8144C224.22 13.1744 224.167 13.5344 224.1 13.8944C224.047 14.241 223.994 14.5344 223.94 14.7744H223.1L222 11.7544C221.88 11.6877 221.687 11.6344 221.42 11.5944C221.154 11.5544 220.88 11.5344 220.6 11.5344C220.054 11.5344 219.54 11.6477 219.06 11.8744C218.58 12.0877 218.154 12.4344 217.78 12.9144C217.407 13.3944 217.114 14.0144 216.9 14.7744C216.687 15.521 216.58 16.421 216.58 17.4744C216.58 19.381 216.96 20.8477 217.72 21.8744C218.48 22.901 219.514 23.4144 220.82 23.4144C221.194 23.4144 221.507 23.3877 221.76 23.3344C222.027 23.2677 222.207 23.181 222.3 23.0744L223.28 20.2744ZM235.08 24.4744H228.2V23.7144C228.467 23.6077 228.767 23.501 229.1 23.3944C229.447 23.2744 229.794 23.1877 230.14 23.1344V11.7744H227.82L226.54 15.1944H225.72C225.667 14.9277 225.614 14.5877 225.56 14.1744C225.507 13.761 225.46 13.3344 225.42 12.8944C225.38 12.4544 225.347 12.021 225.32 11.5944C225.294 11.1544 225.28 10.781 225.28 10.4744H238.02C238.02 10.7944 238.007 11.1677 237.98 11.5944C237.954 12.021 237.92 12.4544 237.88 12.8944C237.84 13.3344 237.794 13.761 237.74 14.1744C237.687 14.5744 237.634 14.9144 237.58 15.1944H236.74L235.46 11.7744H233.14V23.1344C233.487 23.201 233.827 23.281 234.16 23.3744C234.507 23.4677 234.814 23.581 235.08 23.7144V24.4744ZM244.74 24.4744H238.72V23.7144C238.974 23.581 239.24 23.461 239.52 23.3544C239.8 23.2477 240.08 23.1744 240.36 23.1344V11.8144C240.094 11.7477 239.814 11.6744 239.52 11.5944C239.227 11.501 238.96 11.381 238.72 11.2344V10.4744H244.74V11.2344C244.54 11.3544 244.314 11.4677 244.06 11.5744C243.807 11.681 243.534 11.761 243.24 11.8144V19.4144L243.04 20.9744L244.02 19.3344L249.06 12.2944V11.8144C248.434 11.6677 247.907 11.4744 247.48 11.2344V10.4744H253.5V11.2344C253.274 11.381 253.014 11.501 252.72 11.5944C252.44 11.6744 252.154 11.7477 251.86 11.8144V23.1344C252.167 23.1877 252.454 23.2677 252.72 23.3744C253 23.4677 253.26 23.581 253.5 23.7144V24.4744H247.48V23.7144C247.667 23.621 247.887 23.521 248.14 23.4144C248.407 23.2944 248.687 23.201 248.98 23.1344V15.5544L249.18 13.9744L248.28 15.5544L243.16 22.6944V23.1344C243.467 23.201 243.754 23.2877 244.02 23.3944C244.287 23.501 244.527 23.6077 244.74 23.7144V24.4744ZM261.886 10.4744H267.246V11.2344C267.02 11.381 266.76 11.5077 266.466 11.6144C266.173 11.7077 265.906 11.7744 265.666 11.8144L261.866 16.6344C262.173 17.061 262.533 17.5477 262.946 18.0944C263.36 18.6277 263.8 19.1877 264.266 19.7744C264.733 20.3477 265.213 20.9344 265.706 21.5344C266.2 22.121 266.68 22.681 267.146 23.2144L268.106 23.7944V24.4744H264.626L263.826 23.9144C263.506 23.5144 263.166 23.0744 262.806 22.5944C262.46 22.101 262.113 21.5944 261.766 21.0744C261.42 20.541 261.08 20.0077 260.746 19.4744C260.413 18.941 260.1 18.421 259.806 17.9144H258.946V23.1344C259.24 23.1877 259.506 23.2677 259.746 23.3744C259.986 23.481 260.193 23.5944 260.366 23.7144V24.4744H254.306V23.7144C254.573 23.581 254.846 23.4677 255.126 23.3744C255.406 23.2677 255.68 23.1877 255.946 23.1344V11.8144C255.64 11.7744 255.34 11.701 255.046 11.5944C254.766 11.4877 254.52 11.3677 254.306 11.2344V10.4744H260.366V11.2344C260.193 11.341 259.98 11.4477 259.726 11.5544C259.486 11.661 259.226 11.7477 258.946 11.8144V16.8944L260.126 16.6144L263.346 11.8144C263.08 11.761 262.813 11.681 262.546 11.5744C262.293 11.4544 262.073 11.341 261.886 11.2344V10.4744Z" fill="white"/>
<path d="M81.2139 34.9031V47.7H79.5439V34.9031H81.2139ZM85.3271 34.9031V36.2917H75.4395V34.9031H85.3271ZM89.0186 46.7156L91.6641 38.1902H93.4043L89.5898 49.1677C89.502 49.4021 89.3848 49.6541 89.2383 49.9236C89.0977 50.199 88.916 50.4597 88.6934 50.7058C88.4707 50.9519 88.2012 51.1511 87.8848 51.3035C87.5742 51.4617 87.2021 51.5408 86.7686 51.5408C86.6396 51.5408 86.4756 51.5232 86.2764 51.488C86.0771 51.4529 85.9365 51.4236 85.8545 51.4001L85.8457 50.0818C85.8926 50.0876 85.9658 50.0935 86.0654 50.0994C86.1709 50.1111 86.2441 50.1169 86.2852 50.1169C86.6543 50.1169 86.9678 50.0671 87.2256 49.9675C87.4834 49.8738 87.7002 49.7126 87.876 49.4841C88.0576 49.2615 88.2129 48.9539 88.3418 48.5613L89.0186 46.7156ZM87.0762 38.1902L89.5459 45.573L89.9678 47.2869L88.7988 47.8845L85.3008 38.1902H87.0762ZM96.498 40.0183V51.3562H94.8633V38.1902H96.3574L96.498 40.0183ZM102.905 42.866V43.0505C102.905 43.7419 102.823 44.3835 102.659 44.9753C102.495 45.5613 102.255 46.071 101.938 46.5046C101.628 46.9382 101.244 47.2751 100.787 47.5154C100.33 47.7556 99.8057 47.8757 99.2139 47.8757C98.6104 47.8757 98.0771 47.7761 97.6143 47.5769C97.1514 47.3777 96.7588 47.0876 96.4365 46.7068C96.1143 46.3259 95.8564 45.8689 95.6631 45.3357C95.4756 44.8025 95.3467 44.2019 95.2764 43.5339V42.5496C95.3467 41.8464 95.4785 41.2166 95.6719 40.6599C95.8652 40.1033 96.1201 39.6287 96.4365 39.2361C96.7588 38.8376 97.1484 38.5359 97.6055 38.3308C98.0625 38.1199 98.5898 38.0144 99.1875 38.0144C99.7852 38.0144 100.315 38.1316 100.778 38.366C101.241 38.5945 101.631 38.9226 101.947 39.3503C102.264 39.7781 102.501 40.2908 102.659 40.8884C102.823 41.4802 102.905 42.1394 102.905 42.866ZM101.271 43.0505V42.866C101.271 42.3914 101.221 41.946 101.121 41.53C101.021 41.1082 100.866 40.739 100.655 40.4226C100.45 40.1003 100.187 39.8484 99.8643 39.6667C99.542 39.4792 99.1582 39.3855 98.7129 39.3855C98.3027 39.3855 97.9453 39.4558 97.6406 39.5964C97.3418 39.7371 97.0869 39.9275 96.876 40.1677C96.665 40.4021 96.4922 40.6716 96.3574 40.9763C96.2285 41.2751 96.1318 41.5857 96.0674 41.908V44.1843C96.1846 44.5945 96.3486 44.9812 96.5596 45.3445C96.7705 45.7019 97.0518 45.9919 97.4033 46.2146C97.7549 46.4314 98.1973 46.5398 98.7305 46.5398C99.1699 46.5398 99.5479 46.449 99.8643 46.2673C100.187 46.0798 100.45 45.825 100.655 45.5027C100.866 45.1804 101.021 44.8113 101.121 44.3953C101.221 43.9734 101.271 43.5251 101.271 43.0505ZM110.587 46.074V41.1785C110.587 40.8035 110.511 40.4783 110.358 40.2029C110.212 39.9216 109.989 39.7048 109.69 39.5525C109.392 39.4001 109.022 39.324 108.583 39.324C108.173 39.324 107.812 39.3943 107.502 39.5349C107.197 39.6755 106.957 39.8601 106.781 40.0886C106.611 40.3171 106.526 40.5632 106.526 40.8269H104.9C104.9 40.4871 104.988 40.1501 105.164 39.8162C105.34 39.4822 105.592 39.1804 105.92 38.9109C106.254 38.6355 106.652 38.4187 107.115 38.2605C107.584 38.0964 108.105 38.0144 108.68 38.0144C109.371 38.0144 109.98 38.1316 110.508 38.366C111.041 38.6003 111.457 38.9548 111.756 39.4294C112.061 39.8982 112.213 40.4871 112.213 41.196V45.6257C112.213 45.9421 112.239 46.2791 112.292 46.6365C112.351 46.9939 112.436 47.3015 112.547 47.5593V47.7H110.851C110.769 47.5125 110.704 47.2634 110.657 46.9529C110.61 46.6365 110.587 46.3435 110.587 46.074ZM110.868 41.9343L110.886 43.0769H109.242C108.779 43.0769 108.366 43.115 108.003 43.1912C107.64 43.2615 107.335 43.3699 107.089 43.5164C106.843 43.6628 106.655 43.8474 106.526 44.0701C106.397 44.2869 106.333 44.5417 106.333 44.8347C106.333 45.1335 106.4 45.406 106.535 45.6521C106.67 45.8982 106.872 46.0945 107.142 46.241C107.417 46.3816 107.754 46.4519 108.152 46.4519C108.65 46.4519 109.09 46.3464 109.471 46.1355C109.852 45.9246 110.153 45.6667 110.376 45.3621C110.604 45.0574 110.728 44.7615 110.745 44.4744L111.439 45.2566C111.398 45.5027 111.287 45.7751 111.105 46.074C110.924 46.3728 110.681 46.6599 110.376 46.9353C110.077 47.2048 109.72 47.4304 109.304 47.6121C108.894 47.7878 108.431 47.8757 107.915 47.8757C107.271 47.8757 106.705 47.7498 106.219 47.4978C105.738 47.2458 105.363 46.9089 105.094 46.4871C104.83 46.0593 104.698 45.5818 104.698 45.0544C104.698 44.5447 104.798 44.0964 104.997 43.7097C105.196 43.3171 105.483 42.9919 105.858 42.7341C106.233 42.4705 106.685 42.2712 107.212 42.1365C107.739 42.0017 108.328 41.9343 108.979 41.9343H110.868ZM120.914 38.1902V39.5349H116.52V47.7H114.894V38.1902H120.914ZM126.1 47.8757C125.438 47.8757 124.837 47.7644 124.298 47.5417C123.765 47.3132 123.305 46.9939 122.918 46.5837C122.537 46.1736 122.244 45.6873 122.039 45.1248C121.834 44.5623 121.731 43.947 121.731 43.2791V42.9099C121.731 42.1365 121.846 41.448 122.074 40.8445C122.303 40.2351 122.613 39.7195 123.006 39.2976C123.398 38.8757 123.844 38.5564 124.342 38.3396C124.84 38.1228 125.355 38.0144 125.889 38.0144C126.568 38.0144 127.154 38.1316 127.646 38.366C128.145 38.6003 128.552 38.9285 128.868 39.3503C129.185 39.7664 129.419 40.2585 129.571 40.8269C129.724 41.3894 129.8 42.0046 129.8 42.6726V43.4021H122.698V42.075H128.174V41.9519C128.15 41.53 128.062 41.1199 127.91 40.7214C127.764 40.323 127.529 39.9949 127.207 39.7371C126.885 39.4792 126.445 39.3503 125.889 39.3503C125.52 39.3503 125.18 39.4294 124.869 39.5876C124.559 39.74 124.292 39.9685 124.069 40.2732C123.847 40.5779 123.674 40.95 123.551 41.3894C123.428 41.8289 123.366 42.3357 123.366 42.9099V43.2791C123.366 43.7302 123.428 44.155 123.551 44.5535C123.68 44.946 123.864 45.2917 124.104 45.5906C124.351 45.8894 124.646 46.1238 124.992 46.2937C125.344 46.4636 125.742 46.5486 126.188 46.5486C126.762 46.5486 127.248 46.4314 127.646 46.197C128.045 45.9626 128.394 45.6492 128.692 45.2566L129.677 46.0388C129.472 46.3494 129.211 46.6453 128.895 46.9265C128.578 47.2078 128.188 47.4363 127.726 47.6121C127.269 47.7878 126.727 47.8757 126.1 47.8757ZM138.149 42.3123V43.6306H133.122V42.3123H138.149ZM133.465 38.1902V47.7H131.839V38.1902H133.465ZM139.468 38.1902V47.7H137.833V38.1902H139.468ZM145.963 38.1902V47.7H144.328V38.1902H145.963ZM149.153 38.1902V39.5085H141.199V38.1902H149.153ZM153.855 46.5398C154.242 46.5398 154.6 46.4607 154.928 46.3025C155.256 46.1443 155.525 45.9275 155.736 45.6521C155.947 45.3708 156.067 45.0515 156.097 44.6941H157.644C157.614 45.2566 157.424 45.781 157.072 46.2673C156.727 46.7478 156.272 47.1375 155.71 47.4363C155.147 47.7292 154.529 47.8757 153.855 47.8757C153.141 47.8757 152.517 47.7498 151.983 47.4978C151.456 47.2458 151.017 46.9001 150.665 46.4607C150.319 46.0212 150.059 45.5173 149.883 44.949C149.713 44.3748 149.628 43.7683 149.628 43.1296V42.7605C149.628 42.1218 149.713 41.5183 149.883 40.95C150.059 40.3757 150.319 39.8689 150.665 39.4294C151.017 38.99 151.456 38.6443 151.983 38.3923C152.517 38.1404 153.141 38.0144 153.855 38.0144C154.6 38.0144 155.25 38.1667 155.807 38.4714C156.363 38.7703 156.8 39.1804 157.116 39.7019C157.438 40.2175 157.614 40.8035 157.644 41.4597H156.097C156.067 41.0671 155.956 40.7126 155.763 40.3962C155.575 40.0798 155.317 39.8279 154.989 39.6404C154.667 39.447 154.289 39.3503 153.855 39.3503C153.357 39.3503 152.938 39.45 152.599 39.6492C152.265 39.8425 151.998 40.1062 151.799 40.4402C151.605 40.7683 151.465 41.1345 151.377 41.5388C151.295 41.9373 151.254 42.3445 151.254 42.7605V43.1296C151.254 43.5457 151.295 43.9558 151.377 44.3601C151.459 44.7644 151.597 45.1306 151.79 45.4587C151.989 45.7869 152.256 46.0505 152.59 46.2498C152.93 46.4431 153.352 46.5398 153.855 46.5398ZM163.348 38.1902V47.7H161.713V38.1902H163.348ZM166.538 38.1902V39.5085H158.584V38.1902H166.538ZM172.603 43.5164H169.482L169.465 42.2156H172.014C172.518 42.2156 172.937 42.1658 173.271 42.0662C173.61 41.9666 173.865 41.8171 174.035 41.6179C174.205 41.4187 174.29 41.1726 174.29 40.8796C174.29 40.6511 174.24 40.4519 174.141 40.282C174.047 40.1062 173.903 39.9626 173.71 39.8513C173.517 39.7341 173.276 39.6492 172.989 39.5964C172.708 39.5378 172.377 39.5085 171.996 39.5085H169.913V47.7H168.287V38.1902H171.996C172.6 38.1902 173.142 38.2429 173.622 38.3484C174.108 38.4539 174.521 38.615 174.861 38.8318C175.207 39.0427 175.471 39.3123 175.652 39.6404C175.834 39.9685 175.925 40.3552 175.925 40.8005C175.925 41.0876 175.866 41.3601 175.749 41.6179C175.632 41.8757 175.459 42.1042 175.23 42.3035C175.002 42.5027 174.721 42.6667 174.387 42.7957C174.053 42.9187 173.669 42.9978 173.235 43.033L172.603 43.5164ZM172.603 47.7H168.894L169.702 46.3816H172.603C173.054 46.3816 173.429 46.3259 173.728 46.2146C174.026 46.0974 174.249 45.9333 174.396 45.7224C174.548 45.5056 174.624 45.2478 174.624 44.949C174.624 44.6501 174.548 44.3953 174.396 44.1843C174.249 43.9675 174.026 43.8035 173.728 43.6921C173.429 43.575 173.054 43.5164 172.603 43.5164H170.133L170.15 42.2156H173.235L173.824 42.7078C174.346 42.7488 174.788 42.8777 175.151 43.0945C175.515 43.3113 175.79 43.5867 175.978 43.9207C176.165 44.2488 176.259 44.6062 176.259 44.9929C176.259 45.4382 176.174 45.8308 176.004 46.1707C175.84 46.5105 175.6 46.7947 175.283 47.0232C174.967 47.2458 174.583 47.4158 174.132 47.533C173.681 47.6443 173.171 47.7 172.603 47.7ZM178.008 43.0505V42.8484C178.008 42.1628 178.107 41.5271 178.307 40.9412C178.506 40.3494 178.793 39.8367 179.168 39.4031C179.543 38.9636 179.997 38.6238 180.53 38.3835C181.063 38.1375 181.661 38.0144 182.323 38.0144C182.991 38.0144 183.592 38.1375 184.125 38.3835C184.664 38.6238 185.121 38.9636 185.496 39.4031C185.877 39.8367 186.167 40.3494 186.366 40.9412C186.565 41.5271 186.665 42.1628 186.665 42.8484V43.0505C186.665 43.7361 186.565 44.3718 186.366 44.9578C186.167 45.5437 185.877 46.0564 185.496 46.4958C185.121 46.9294 184.667 47.2693 184.134 47.5154C183.606 47.7556 183.009 47.8757 182.341 47.8757C181.673 47.8757 181.072 47.7556 180.539 47.5154C180.006 47.2693 179.549 46.9294 179.168 46.4958C178.793 46.0564 178.506 45.5437 178.307 44.9578C178.107 44.3718 178.008 43.7361 178.008 43.0505ZM179.634 42.8484V43.0505C179.634 43.5251 179.689 43.9734 179.801 44.3953C179.912 44.8113 180.079 45.1804 180.302 45.5027C180.53 45.825 180.814 46.0798 181.154 46.2673C181.494 46.449 181.89 46.5398 182.341 46.5398C182.786 46.5398 183.176 46.449 183.51 46.2673C183.85 46.0798 184.131 45.825 184.354 45.5027C184.576 45.1804 184.743 44.8113 184.854 44.3953C184.972 43.9734 185.03 43.5251 185.03 43.0505V42.8484C185.03 42.3796 184.972 41.9373 184.854 41.5212C184.743 41.0994 184.573 40.7273 184.345 40.405C184.122 40.0769 183.841 39.8191 183.501 39.6316C183.167 39.4441 182.774 39.3503 182.323 39.3503C181.878 39.3503 181.485 39.4441 181.146 39.6316C180.812 39.8191 180.53 40.0769 180.302 40.405C180.079 40.7273 179.912 41.0994 179.801 41.5212C179.689 41.9373 179.634 42.3796 179.634 42.8484Z" fill="white"/>
<path d="M59.5 29.7276C59.5 45.5486 46.3057 58.3978 30 58.3978C13.6943 58.3978 0.5 45.5486 0.5 29.7276C0.5 13.9066 13.6943 1.05737 30 1.05737C46.3057 1.05737 59.5 13.9066 59.5 29.7276Z" stroke="white"/>
<path d="M63.2078 10.8016L61.0769 7.77984L59.2867 6.27137L59.2701 5.03785L58.4212 4.44678L57.3559 6.65046L55.7459 5.63532L55.1886 6.18617L55.8148 7.40717L46.5703 15.9772L32.0115 22.8741L27.644 23.814L26.6165 24.3259L23.9038 27.7354L22.7772 31.4259L22.5127 33.4661L23.0969 34.684L23.1586 34.2392L24.1991 30.5588L23.2062 37.991L22.0798 41.3411L20 51.5388H21.8884L21.3175 50.616L22.3093 45.7438L26.0545 38.4717L25.3657 41.2055L28.2919 51.5388H30.2819L29.4497 50.5089L28.0537 46.4601L27.4639 40.3795L29.6087 35.576L30.8934 34.3572L36.845 34.3657L37.8978 35.3862L35.9732 49.3173L36.05 51.5388H37.9439L37.2455 50.5187L37.506 45.2144L40.4114 35.5046L40.7681 35.5071L47.1446 51.5388H49.0591L48.0865 50.5729L46.353 46.0142L43.6351 34.512L44.3556 28.6112L44.0028 26.965L44.3345 25.8067L56.7052 12.1499L58.5897 11.792L63.3487 13.4758L63.6867 12.1713L63.2078 10.8016Z" fill="white"/>
</svg>
